<?xml version="1.0" encoding="UTF-8" ?>
<!DOCTYPE svg PUBLIC "-//W3C//DTD SVG 1.1//EN" "http://www.w3.org/Graphics/SVG/1.1/DTD/svg11.dtd">
<svg width="512pt" height="512pt" viewBox="0 0 512 512" version="1.1" xmlns="http://www.w3.org/2000/svg">
<g id="#000000fa">
<path fill="#000000" opacity="0.98" d=" M 233.46 0.00 L 253.54 0.00 C 276.51 2.73 299.08 11.09 316.95 26.03 C 329.28 35.87 339.08 48.45 347.21 61.88 C 360.58 62.03 374.03 61.20 387.34 62.76 C 393.08 64.67 392.44 75.18 386.16 76.11 C 375.50 77.67 364.64 76.98 353.89 77.17 C 364.49 110.31 360.03 145.63 361.01 179.81 C 369.62 179.85 378.27 179.53 386.87 180.34 C 393.39 181.76 392.62 193.14 386.06 194.03 C 377.81 195.46 369.35 194.92 361.02 195.19 C 360.95 219.90 360.95 244.60 361.05 269.30 C 366.56 269.77 372.19 269.58 377.66 270.58 C 381.36 272.03 384.76 275.39 385.34 279.46 C 386.78 297.61 386.07 315.86 386.14 334.05 C 386.52 340.13 385.04 348.01 378.99 350.90 C 373.20 352.73 367.04 352.80 361.07 353.54 C 360.70 380.66 363.10 408.77 353.81 434.80 C 364.57 435.11 375.52 434.10 386.18 435.85 C 391.47 436.95 392.47 443.73 389.73 447.71 C 388.03 450.09 384.27 449.27 382.00 449.80 C 370.40 450.43 358.78 450.09 347.18 450.11 C 335.31 469.63 319.45 487.30 298.97 497.94 C 285.02 505.88 269.19 509.73 253.41 512.00 L 233.59 512.00 C 224.04 510.57 214.48 508.76 205.35 505.58 C 171.00 493.98 143.31 465.31 132.18 430.91 C 123.54 405.99 128.01 379.23 126.99 353.44 C 120.31 352.67 113.10 353.40 107.09 349.84 C 102.72 347.58 101.74 342.37 100.18 338.17 C 85.98 338.00 71.73 338.61 57.57 337.30 C 49.69 337.48 43.12 331.01 41.40 323.67 C 40.45 315.30 40.55 306.81 41.55 298.46 C 42.34 292.01 47.99 286.79 54.11 285.29 C 69.23 284.33 84.42 285.14 99.57 284.73 C 101.61 279.26 103.57 272.16 110.25 270.70 C 115.72 269.84 121.28 269.68 126.80 269.24 C 127.59 236.16 126.32 203.07 127.20 170.00 C 125.50 164.40 132.12 158.96 137.05 161.90 C 141.77 164.24 142.20 170.37 142.03 174.95 C 142.25 206.64 141.80 238.34 142.01 270.04 C 153.61 269.97 165.20 269.92 176.79 269.75 C 177.56 216.85 176.36 163.93 177.29 111.04 C 178.41 76.29 212.59 47.23 246.93 50.23 C 269.55 50.75 290.86 64.56 301.97 84.04 C 310.18 97.80 310.89 114.40 311.05 129.98 C 311.04 176.67 310.94 223.36 311.01 270.04 C 322.61 269.97 334.20 269.92 345.80 269.75 C 346.29 226.50 345.84 183.25 346.04 140.00 C 345.73 120.97 346.24 101.35 339.89 83.11 C 333.93 66.96 324.35 52.04 311.19 40.82 C 283.16 14.88 239.84 7.86 204.81 22.79 C 171.91 35.82 147.28 67.43 142.69 102.50 C 141.55 113.65 142.67 124.97 141.03 136.06 C 140.07 142.43 128.59 143.05 127.53 136.57 C 125.34 113.12 127.02 88.26 137.97 66.98 C 154.87 29.62 192.96 4.04 233.46 0.00 M 223.24 69.17 C 205.35 76.76 191.78 95.24 191.99 114.96 C 191.95 166.64 192.02 218.31 192.01 269.99 C 226.52 270.06 261.04 269.91 295.55 270.09 C 296.64 238.74 295.69 207.36 296.00 176.00 C 295.69 155.32 296.85 134.58 295.24 113.94 C 294.46 98.61 286.65 83.78 273.96 75.06 C 259.80 63.81 239.66 62.29 223.24 69.17 M 116.02 285.01 C 116.61 302.59 114.49 320.46 117.05 337.88 C 155.69 338.47 194.36 337.55 233.01 338.11 C 238.52 336.33 244.08 343.24 241.09 348.05 C 239.41 351.42 235.51 352.66 231.99 352.82 C 218.68 353.36 205.35 352.97 192.04 353.00 C 192.21 369.62 191.27 386.27 192.43 402.87 C 195.43 429.64 222.96 450.56 249.58 446.56 C 269.19 444.70 286.48 430.23 292.68 411.70 C 298.45 392.69 295.26 372.59 295.98 353.08 C 286.61 352.95 277.15 353.51 267.85 352.18 C 263.08 351.57 260.23 346.06 262.57 341.64 C 264.60 336.38 271.81 338.81 275.97 337.96 C 307.64 337.91 339.31 338.09 370.98 337.99 C 371.03 320.33 371.03 302.67 370.98 285.02 C 285.99 284.98 201.01 285.00 116.02 285.01 M 57.46 300.44 C 57.15 300.63 56.52 301.02 56.21 301.21 C 55.88 307.99 55.72 314.78 55.71 321.59 C 70.60 324.47 85.94 322.61 101.00 322.96 C 100.98 315.31 100.99 307.67 101.01 300.03 C 86.50 300.14 71.95 299.28 57.46 300.44 M 142.02 352.99 C 142.06 368.33 141.73 383.68 142.07 399.02 C 141.98 419.82 149.96 440.14 162.39 456.62 C 183.75 484.84 220.67 501.34 255.98 496.10 C 291.15 492.29 322.82 468.27 336.96 435.98 C 348.91 410.03 345.61 380.65 345.98 352.99 C 334.31 353.00 322.66 353.00 311.00 352.99 C 310.42 374.53 313.24 396.79 306.69 417.70 C 296.77 446.24 265.55 465.96 235.44 461.50 C 205.99 458.51 180.57 433.34 177.21 403.98 C 176.58 386.99 177.13 369.98 177.00 352.99 C 165.34 353.00 153.68 353.00 142.02 352.99 Z" />
<path fill="#000000" opacity="0.98" d=" M 412.14 39.00 C 410.75 33.87 415.87 28.72 421.00 30.01 C 431.29 30.06 443.29 28.05 451.96 35.07 C 465.07 43.78 465.85 65.75 452.97 74.97 C 445.78 81.11 436.05 80.86 427.21 81.24 C 426.98 88.29 427.39 95.42 426.42 102.42 C 425.61 108.27 416.84 110.08 413.29 105.71 C 411.32 102.20 412.58 97.80 411.96 94.03 C 411.98 75.69 411.67 57.33 412.14 39.00 M 427.00 44.65 C 426.99 51.86 427.00 59.07 427.01 66.28 C 432.92 65.24 440.71 67.49 444.77 61.78 C 448.61 57.68 447.86 49.98 442.97 47.02 C 438.22 43.96 432.28 45.25 427.00 44.65 Z" />
<path fill="#000000" opacity="0.98" d=" M 413.27 150.28 C 416.34 146.73 421.95 148.62 425.97 147.81 C 434.08 147.87 443.02 146.91 449.96 152.06 C 461.24 158.79 464.51 175.81 455.93 185.94 C 452.85 190.56 447.51 192.55 442.95 195.31 C 448.34 202.71 456.23 208.41 460.45 216.62 C 463.00 222.51 455.93 226.25 451.25 227.10 C 443.05 218.53 435.24 209.61 427.40 200.73 C 426.62 207.86 428.32 215.59 425.39 222.37 C 423.30 227.64 413.53 227.47 412.49 221.61 C 411.30 201.76 412.15 181.84 411.96 161.97 C 412.56 158.17 411.36 153.81 413.27 150.28 M 427.00 162.61 C 427.00 168.86 427.00 175.11 427.03 181.36 C 432.57 180.25 439.99 182.26 443.78 176.78 C 447.88 173.23 445.36 167.07 441.66 164.36 C 437.08 162.32 431.82 163.24 427.00 162.61 Z" />
<path fill="#000000" opacity="0.98" d=" M 416.38 273.45 C 427.43 272.56 439.00 271.80 449.70 275.31 C 464.89 282.54 470.10 300.86 468.41 316.41 C 467.35 331.68 456.29 347.86 439.88 348.68 C 431.08 347.98 418.61 353.19 412.38 344.71 C 411.39 324.82 412.18 304.88 411.89 284.97 C 411.93 281.32 411.20 274.30 416.38 273.45 M 427.02 287.74 C 426.97 303.23 426.96 318.72 427.01 334.22 C 433.92 333.59 442.30 335.29 447.35 329.35 C 456.63 318.92 456.35 300.67 446.24 290.79 C 440.77 286.69 433.28 288.37 427.02 287.74 Z" />
<path fill="#000000" opacity="0.98" d=" M 412.49 408.39 C 413.24 403.66 420.34 402.43 423.58 405.41 C 434.97 419.93 444.28 435.99 455.77 450.46 C 456.16 437.95 455.35 425.46 455.06 412.97 C 455.02 409.59 456.46 406.06 459.38 404.20 C 462.74 403.30 469.00 403.80 469.41 408.40 C 470.94 429.57 471.50 450.83 470.96 472.05 C 470.68 477.74 466.52 482.88 460.12 481.05 C 455.72 478.04 452.69 473.57 449.72 469.26 C 442.26 458.36 434.97 447.35 427.23 436.65 C 426.95 448.76 427.35 460.88 426.84 472.99 C 426.45 476.35 425.37 480.72 421.60 481.65 C 416.56 484.51 410.59 477.92 412.07 473.04 C 412.03 451.49 411.35 429.90 412.49 408.39 Z" />
</g>
</svg>
