<?xml version="1.0" encoding="UTF-8" ?>
<!DOCTYPE svg PUBLIC "-//W3C//DTD SVG 1.1//EN" "http://www.w3.org/Graphics/SVG/1.1/DTD/svg11.dtd">
<svg width="100pt" height="100pt" viewBox="0 0 100 100" version="1.1" xmlns="http://www.w3.org/2000/svg">
<path fill="#ffffff" stroke="#ffffff" stroke-width="0.09375" opacity="1.00" d=" M 17.34 19.48 C 20.89 14.14 29.99 14.48 33.08 20.12 C 36.05 25.00 33.71 32.12 28.13 33.83 C 28.12 38.18 28.13 42.52 28.13 46.87 C 34.38 46.87 40.63 46.87 46.88 46.87 C 46.80 42.57 47.03 38.27 46.79 33.97 C 41.83 32.00 39.12 26.05 41.42 21.10 C 43.86 14.92 53.13 13.80 57.22 18.89 C 61.32 23.62 59.28 31.99 53.13 33.83 C 53.12 38.18 53.13 42.52 53.13 46.87 C 59.37 46.87 65.62 46.87 71.87 46.87 C 71.87 42.55 71.89 38.24 71.86 33.93 C 66.06 32.02 63.72 24.30 67.37 19.45 C 70.94 14.13 80.02 14.49 83.09 20.15 C 86.08 25.07 83.63 32.09 78.14 33.93 C 78.11 40.33 78.13 46.73 78.13 53.13 C 69.79 53.13 61.46 53.13 53.13 53.13 C 53.13 57.48 53.11 61.82 53.14 66.17 C 58.71 67.87 61.03 74.96 58.11 79.82 C 55.06 85.51 45.92 85.87 42.35 80.53 C 38.78 75.73 40.99 67.94 46.86 66.17 C 46.89 61.82 46.87 57.48 46.87 53.13 C 40.62 53.13 34.38 53.13 28.13 53.13 C 28.13 57.48 28.12 61.82 28.13 66.17 C 33.72 67.87 36.05 75.01 33.07 79.89 C 29.98 85.51 20.92 85.85 17.36 80.54 C 13.78 75.75 15.98 67.94 21.85 66.18 C 21.88 55.39 21.90 44.60 21.84 33.81 C 15.99 32.05 13.78 24.27 17.34 19.48 M 23.23 22.28 C 21.83 23.23 21.55 25.27 22.31 26.71 C 23.47 28.94 27.54 28.54 27.96 25.94 C 29.02 23.14 25.66 20.74 23.23 22.28 M 48.21 22.28 C 44.97 24.53 48.20 29.99 51.74 27.73 C 55.08 25.52 51.77 19.97 48.21 22.28 M 73.22 22.26 C 71.86 23.24 71.53 25.23 72.29 26.68 C 73.42 28.92 77.49 28.56 77.95 25.99 C 79.04 23.17 75.69 20.75 73.22 22.26 M 23.20 72.29 C 21.83 73.26 21.54 75.27 22.31 76.72 C 23.49 78.96 27.61 78.51 27.99 75.87 C 28.96 73.07 25.61 70.75 23.20 72.29 M 48.23 72.27 C 45.35 74.15 47.49 79.38 50.99 78.01 C 55.30 76.77 52.24 69.64 48.23 72.27 Z" />
<path fill="#ffffff" stroke="#ffffff" stroke-width="0.09375" opacity="1.00" d=" M 68.75 59.41 C 73.22 59.73 78.71 58.12 82.18 61.82 C 84.36 63.88 84.45 67.03 84.40 69.83 C 82.90 70.72 81.78 72.05 80.76 73.43 C 82.00 77.08 83.17 80.74 84.38 84.40 C 82.30 84.40 80.21 84.40 78.13 84.40 C 77.05 81.27 76.09 78.10 75.21 74.91 C 75.01 78.07 74.97 81.24 74.99 84.40 C 72.91 84.40 70.83 84.40 68.75 84.40 C 68.75 76.07 68.75 67.74 68.75 59.41 M 74.96 65.39 C 75.01 66.30 75.11 68.13 75.16 69.05 C 76.65 68.93 79.19 67.99 77.74 66.04 C 77.05 65.87 75.65 65.55 74.96 65.39 Z" />
</svg>
