<?xml version="1.0" encoding="UTF-8" ?>
<!DOCTYPE svg PUBLIC "-//W3C//DTD SVG 1.1//EN" "http://www.w3.org/Graphics/SVG/1.1/DTD/svg11.dtd">
<svg width="279pt" height="76pt" viewBox="0 0 279 76" version="1.1" xmlns="http://www.w3.org/2000/svg">
<path fill="#ffffff" stroke="#ffffff" stroke-width="0.09375" opacity="1.00" d=" M 0.00 0.00 L 279.00 0.00 L 279.00 76.00 L 0.00 76.00 L 0.00 0.00 M 21.77 11.76 C 18.85 14.81 17.97 19.08 16.53 22.91 C 14.79 28.24 12.53 33.41 11.21 38.88 C 10.15 43.22 12.01 47.96 15.62 50.54 C 22.21 55.39 31.57 54.81 38.37 50.67 C 42.00 54.89 48.31 54.75 52.43 51.32 C 57.01 55.72 64.86 54.30 68.98 49.95 C 73.46 45.24 74.73 38.60 77.09 32.75 C 78.17 33.16 79.26 33.57 80.35 33.98 C 80.90 38.85 76.58 43.03 77.63 47.96 C 78.30 51.79 82.27 54.28 86.02 53.96 C 89.15 53.86 91.74 51.94 94.06 50.05 C 100.31 55.03 109.31 54.98 116.24 51.48 C 117.84 54.62 122.97 54.89 124.33 51.44 C 126.71 45.79 128.19 39.80 130.40 34.08 C 133.50 33.53 136.69 33.91 139.82 33.82 C 138.16 38.81 134.82 44.54 137.89 49.68 C 142.15 55.78 151.87 55.00 156.49 49.70 C 163.34 55.89 174.56 55.07 181.45 49.37 C 186.44 54.47 194.58 55.09 200.97 52.53 C 199.83 57.05 196.83 61.29 197.42 66.09 C 198.10 66.47 199.46 67.23 200.14 67.61 C 201.91 67.26 204.35 67.02 204.89 64.92 C 206.51 60.74 207.79 56.44 209.22 52.20 C 216.82 55.33 226.00 54.42 232.94 50.04 C 237.84 55.65 247.77 55.30 252.02 49.10 C 259.62 50.69 268.22 44.87 268.44 36.98 C 267.98 33.47 262.99 34.03 262.22 37.04 C 260.94 40.44 257.97 43.70 253.97 42.72 C 256.07 38.20 259.37 33.07 257.04 28.00 C 253.52 21.05 242.78 21.27 238.17 26.95 C 235.19 30.91 234.56 36.02 232.56 40.47 C 231.33 43.74 228.33 45.85 225.27 47.25 C 226.89 42.44 228.81 37.74 230.36 32.92 C 231.65 28.86 228.96 24.16 224.95 22.95 C 222.89 22.37 220.81 23.02 218.83 23.54 C 217.00 20.93 212.47 21.04 211.20 24.11 C 208.53 30.11 207.13 36.62 204.27 42.54 C 201.05 46.89 194.43 49.12 189.46 46.59 C 187.22 45.55 187.54 42.97 187.81 40.95 C 190.43 41.86 193.23 42.91 196.04 42.18 C 202.25 41.20 206.65 33.85 203.99 28.01 C 201.02 21.66 191.65 21.24 186.88 25.75 C 182.08 30.23 182.38 37.56 178.88 42.83 C 175.42 47.03 168.58 49.41 163.76 46.21 C 161.82 45.09 162.35 42.75 162.70 40.95 C 165.59 42.14 168.81 43.00 171.88 41.93 C 177.94 40.27 181.67 32.42 178.17 26.94 C 174.00 20.73 163.58 21.69 159.79 27.84 C 156.30 33.57 156.28 41.32 150.86 45.84 C 148.55 47.94 142.31 48.61 144.72 42.48 C 147.13 48.03 146.68 43.79 145.64 42.62 C 148.83 33.02 152.19 23.48 155.36 13.88 C 156.27 11.70 155.50 8.56 152.95 7.98 C 150.59 7.09 148.24 8.93 147.43 11.08 C 145.47 16.38 143.77 21.78 142.06 27.17 C 138.97 27.14 135.87 27.15 132.78 27.16 C 134.31 21.82 137.00 16.74 137.73 11.21 C 137.60 7.08 131.69 6.76 130.10 10.11 C 127.73 15.66 126.07 21.50 123.93 27.15 C 121.32 26.99 117.77 27.05 116.89 30.14 C 116.90 32.80 119.56 33.82 121.69 34.53 C 119.16 38.08 118.00 42.79 114.03 45.14 C 109.41 48.51 101.29 48.21 98.83 42.37 C 99.98 39.72 99.66 36.72 100.81 34.07 C 102.86 28.93 104.32 23.57 106.62 18.52 C 107.46 16.32 111.44 14.61 112.62 17.38 C 112.77 19.25 111.88 21.03 112.02 22.90 C 112.76 25.87 117.10 26.47 118.93 24.18 C 122.15 20.01 122.14 12.83 117.44 9.71 C 111.22 5.63 101.96 8.15 98.78 14.91 C 96.15 21.17 94.22 27.71 91.85 34.07 C 90.57 37.36 89.85 40.88 90.36 44.42 C 89.43 45.48 88.48 46.52 87.50 47.54 C 86.92 47.53 85.75 47.51 85.16 47.50 C 85.41 42.41 88.81 38.08 89.05 33.01 C 88.59 28.44 83.67 26.68 80.00 25.25 C 80.43 21.87 77.20 18.35 73.76 19.70 C 69.93 21.05 69.54 26.10 71.49 29.16 C 69.85 33.84 68.27 38.57 66.10 43.03 C 64.72 45.87 61.95 47.88 58.72 47.80 C 59.17 39.79 64.35 32.80 65.10 24.86 C 63.93 21.35 59.43 21.72 57.20 23.93 C 52.73 22.02 46.54 22.20 43.73 26.72 C 41.23 31.54 40.13 36.94 37.95 41.91 C 34.57 47.56 25.37 49.45 20.71 44.34 C 18.47 41.99 19.93 38.65 20.85 36.05 C 23.15 30.21 24.82 24.11 27.46 18.41 C 28.45 16.04 31.28 15.63 33.43 16.50 C 33.35 18.67 32.78 20.79 32.75 22.96 C 33.56 25.95 38.18 26.49 39.84 23.93 C 42.80 19.99 42.78 13.46 38.84 10.15 C 33.82 6.38 25.98 7.07 21.77 11.76 Z" />
<path fill="#020202" stroke="#020202" stroke-width="0.09375" opacity="1.00" d=" M 21.77 11.76 C 25.98 7.07 33.82 6.38 38.84 10.15 C 42.78 13.46 42.80 19.99 39.84 23.93 C 38.18 26.49 33.56 25.95 32.75 22.96 C 32.78 20.79 33.35 18.67 33.43 16.50 C 31.28 15.63 28.45 16.04 27.46 18.41 C 24.82 24.11 23.15 30.21 20.85 36.05 C 19.93 38.65 18.47 41.99 20.71 44.34 C 25.37 49.45 34.57 47.56 37.95 41.91 C 40.13 36.94 41.23 31.54 43.73 26.72 C 46.54 22.20 52.73 22.02 57.20 23.93 C 59.43 21.72 63.93 21.35 65.10 24.86 C 64.35 32.80 59.17 39.79 58.72 47.80 C 61.95 47.88 64.72 45.87 66.10 43.03 C 68.27 38.57 69.85 33.84 71.49 29.16 C 69.54 26.10 69.93 21.05 73.76 19.70 C 77.20 18.35 80.43 21.87 80.00 25.25 C 83.67 26.68 88.59 28.44 89.05 33.01 C 88.81 38.08 85.41 42.41 85.16 47.50 C 85.75 47.51 86.92 47.53 87.50 47.54 C 88.48 46.52 89.43 45.48 90.36 44.42 C 89.85 40.88 90.57 37.36 91.85 34.07 C 94.22 27.71 96.15 21.17 98.78 14.91 C 101.96 8.15 111.22 5.63 117.44 9.71 C 122.14 12.83 122.15 20.01 118.93 24.18 C 117.10 26.47 112.76 25.87 112.02 22.90 C 111.88 21.03 112.77 19.25 112.62 17.38 C 111.44 14.61 107.46 16.32 106.62 18.52 C 104.32 23.57 102.86 28.93 100.81 34.07 C 99.66 36.72 99.98 39.72 98.83 42.37 C 101.29 48.21 109.41 48.51 114.03 45.14 C 118.00 42.79 119.16 38.08 121.69 34.53 C 119.56 33.82 116.90 32.80 116.89 30.14 C 117.77 27.05 121.32 26.99 123.93 27.15 C 126.07 21.50 127.73 15.66 130.10 10.11 C 131.69 6.76 137.60 7.08 137.73 11.21 C 137.00 16.74 134.31 21.82 132.78 27.16 C 135.87 27.15 138.97 27.14 142.06 27.17 C 143.77 21.78 145.47 16.38 147.43 11.08 C 148.24 8.93 150.59 7.09 152.95 7.98 C 155.50 8.56 156.27 11.70 155.36 13.88 C 152.19 23.48 148.83 33.02 145.64 42.62 C 146.68 43.79 147.13 48.03 144.72 42.48 C 142.31 48.61 148.55 47.94 150.86 45.84 C 156.28 41.32 156.30 33.57 159.79 27.84 C 163.58 21.69 174.00 20.73 178.17 26.94 C 181.67 32.42 177.94 40.27 171.88 41.93 C 168.81 43.00 165.59 42.14 162.70 40.95 C 162.35 42.75 161.82 45.09 163.76 46.21 C 168.58 49.41 175.42 47.03 178.88 42.83 C 182.38 37.56 182.08 30.23 186.88 25.75 C 191.65 21.24 201.02 21.66 203.99 28.01 C 206.65 33.85 202.25 41.20 196.04 42.18 C 193.23 42.91 190.43 41.86 187.81 40.95 C 187.54 42.97 187.22 45.55 189.46 46.59 C 194.43 49.12 201.05 46.89 204.27 42.54 C 207.13 36.62 208.53 30.11 211.20 24.11 C 212.47 21.04 217.00 20.93 218.83 23.54 C 220.81 23.02 222.89 22.37 224.95 22.95 C 228.96 24.16 231.65 28.86 230.36 32.92 C 228.81 37.74 226.89 42.44 225.27 47.25 C 228.33 45.85 231.33 43.74 232.56 40.47 C 234.56 36.02 235.19 30.91 238.17 26.95 C 242.78 21.27 253.52 21.05 257.04 28.00 C 259.37 33.07 256.07 38.20 253.97 42.72 C 257.97 43.70 260.94 40.44 262.22 37.04 C 262.99 34.03 267.98 33.47 268.44 36.98 C 268.22 44.87 259.62 50.69 252.02 49.10 C 247.77 55.30 237.84 55.65 232.94 50.04 C 226.00 54.42 216.82 55.33 209.22 52.20 C 207.79 56.44 206.51 60.74 204.89 64.92 C 204.35 67.02 201.91 67.26 200.14 67.61 C 199.46 67.23 198.10 66.47 197.42 66.09 C 196.83 61.29 199.83 57.05 200.97 52.53 C 194.58 55.09 186.44 54.47 181.45 49.37 C 174.56 55.07 163.34 55.89 156.49 49.70 C 151.87 55.00 142.15 55.78 137.89 49.68 C 134.82 44.54 138.16 38.81 139.82 33.82 C 136.69 33.91 133.50 33.53 130.40 34.08 C 128.19 39.80 126.71 45.79 124.33 51.44 C 122.97 54.89 117.84 54.62 116.24 51.48 C 109.31 54.98 100.31 55.03 94.06 50.05 C 91.74 51.94 89.15 53.86 86.02 53.96 C 82.27 54.28 78.30 51.79 77.63 47.96 C 76.58 43.03 80.90 38.85 80.35 33.98 C 79.26 33.57 78.17 33.16 77.09 32.75 C 74.73 38.60 73.46 45.24 68.98 49.95 C 64.86 54.30 57.01 55.72 52.43 51.32 C 48.31 54.75 42.00 54.89 38.37 50.67 C 31.57 54.81 22.21 55.39 15.62 50.54 C 12.01 47.96 10.15 43.22 11.21 38.88 C 12.53 33.41 14.79 28.24 16.53 22.91 C 17.97 19.08 18.85 14.81 21.77 11.76 M 165.02 35.20 C 166.85 35.14 169.02 35.98 170.55 34.56 C 172.67 33.16 172.09 28.73 169.12 29.03 C 166.17 29.48 165.94 32.97 165.02 35.20 M 190.31 35.12 C 192.11 35.19 194.18 35.89 195.75 34.66 C 197.95 33.09 197.33 28.71 194.21 28.95 C 191.52 29.78 191.15 32.85 190.31 35.12 M 216.90 30.86 C 215.19 34.75 214.09 38.88 212.58 42.85 C 212.35 44.06 211.32 45.57 212.32 46.68 C 213.05 48.08 214.94 47.32 216.21 47.49 C 219.22 42.79 220.60 37.25 222.23 31.97 C 223.19 28.58 217.88 28.09 216.90 30.86 M 241.22 37.97 C 240.58 40.88 237.95 44.25 239.90 47.11 C 242.02 48.48 244.51 47.12 245.68 45.18 C 241.55 42.01 244.54 35.55 249.44 35.67 C 249.80 33.50 251.50 29.52 248.06 29.09 C 243.11 28.57 242.66 34.58 241.22 37.97 M 48.74 34.69 C 47.61 38.92 45.41 42.97 45.58 47.44 C 46.76 47.46 47.94 47.45 49.13 47.43 C 51.79 44.15 52.59 39.90 53.92 35.99 C 54.55 33.85 55.62 30.65 52.96 29.42 C 50.12 29.42 49.52 32.59 48.74 34.69 Z" />
<path fill="#ffffff" stroke="#ffffff" stroke-width="0.09375" opacity="1.00" d=" M 165.02 35.20 C 165.94 32.97 166.17 29.48 169.12 29.03 C 172.09 28.73 172.67 33.16 170.55 34.56 C 169.02 35.98 166.85 35.14 165.02 35.20 Z" />
<path fill="#ffffff" stroke="#ffffff" stroke-width="0.09375" opacity="1.00" d=" M 190.31 35.12 C 191.15 32.85 191.52 29.78 194.21 28.95 C 197.33 28.71 197.95 33.09 195.75 34.66 C 194.18 35.89 192.11 35.19 190.31 35.12 Z" />
<path fill="#ffffff" stroke="#ffffff" stroke-width="0.09375" opacity="1.00" d=" M 216.90 30.86 C 217.88 28.09 223.19 28.58 222.23 31.97 C 220.60 37.25 219.22 42.79 216.21 47.49 C 214.94 47.32 213.05 48.08 212.32 46.68 C 211.32 45.57 212.35 44.06 212.58 42.85 C 214.09 38.88 215.19 34.75 216.90 30.86 Z" />
<path fill="#ffffff" stroke="#ffffff" stroke-width="0.09375" opacity="1.00" d=" M 241.22 37.97 C 242.66 34.58 243.11 28.57 248.06 29.09 C 251.50 29.52 249.80 33.50 249.44 35.67 C 244.54 35.55 241.55 42.01 245.68 45.18 C 244.51 47.12 242.02 48.48 239.90 47.11 C 237.95 44.25 240.58 40.88 241.22 37.97 Z" />
<path fill="#ffffff" stroke="#ffffff" stroke-width="0.09375" opacity="1.00" d=" M 48.74 34.69 C 49.52 32.59 50.12 29.42 52.96 29.42 C 55.62 30.65 54.55 33.85 53.92 35.99 C 52.59 39.90 51.79 44.15 49.13 47.43 C 47.94 47.45 46.76 47.46 45.58 47.44 C 45.41 42.97 47.61 38.92 48.74 34.69 Z" />
</svg>
