<?xml version="1.0" encoding="UTF-8" ?>
<!DOCTYPE svg PUBLIC "-//W3C//DTD SVG 1.1//EN" "http://www.w3.org/Graphics/SVG/1.1/DTD/svg11.dtd">
<svg width="100pt" height="100pt" viewBox="0 0 100 100" version="1.1" xmlns="http://www.w3.org/2000/svg">
<g id="#ffffffff">
<path fill="#ffffff" opacity="1.00" d=" M 42.85 16.10 C 41.85 10.99 45.91 5.68 51.09 5.28 C 56.54 4.52 61.80 9.47 61.41 14.96 C 61.36 18.80 58.61 22.00 55.22 23.52 C 55.22 24.15 55.21 25.43 55.20 26.06 C 60.53 26.12 65.85 25.98 71.18 26.11 C 75.21 26.10 78.48 30.01 78.11 33.96 C 77.84 38.42 79.43 44.14 75.36 47.35 C 71.41 50.20 66.17 48.45 61.66 48.95 C 61.32 55.05 61.37 61.20 61.59 67.31 C 66.58 68.50 71.97 67.08 77.06 68.01 C 80.06 68.89 82.32 71.83 82.26 74.98 C 82.31 79.34 82.39 83.71 82.21 88.08 C 82.08 91.75 78.67 94.83 75.02 94.76 C 69.12 94.78 63.21 94.94 57.31 94.68 C 52.54 94.21 50.28 88.99 51.06 84.70 C 47.99 84.01 44.53 85.03 41.79 83.14 C 39.40 81.62 38.35 78.70 38.54 75.95 C 38.59 61.64 38.46 47.33 38.60 33.03 C 38.58 27.72 44.35 25.19 48.96 26.04 C 48.96 25.41 48.94 24.14 48.93 23.51 C 45.90 22.14 43.31 19.50 42.85 16.10 M 48.95 26.07 C 49.04 30.07 48.78 34.09 49.06 38.09 C 49.42 40.96 53.80 41.49 54.90 38.82 C 55.60 34.62 55.02 30.31 55.21 26.07 C 53.12 26.07 51.04 26.07 48.95 26.07 Z" />
<path fill="#ffffff" opacity="1.00" d=" M 20.31 34.50 C 23.64 34.35 27.02 34.19 30.33 34.62 C 33.17 35.57 32.70 40.25 29.70 40.50 C 26.35 40.63 22.94 40.84 19.61 40.36 C 16.82 39.37 17.32 34.72 20.31 34.50 Z" />
<path fill="#ffffff" opacity="1.00" d=" M 19.35 49.33 C 22.52 48.58 25.87 48.95 29.10 49.01 C 31.44 48.79 33.13 51.73 31.83 53.65 C 31.14 55.09 29.40 55.23 28.01 55.19 C 25.35 55.24 22.68 55.30 20.03 55.07 C 17.36 54.52 16.93 50.51 19.35 49.33 Z" />
<path fill="#ffffff" opacity="1.00" d=" M 19.20 64.05 C 22.61 63.02 26.43 63.60 29.99 63.67 C 33.10 64.33 32.88 69.33 29.74 69.68 C 26.57 69.90 23.36 69.91 20.19 69.67 C 17.55 69.31 16.80 65.30 19.20 64.05 Z" />
<path fill="#ffffff" opacity="1.00" d=" M 20.16 78.25 C 23.36 78.03 26.58 78.03 29.77 78.25 C 32.88 78.60 33.08 83.53 30.04 84.23 C 26.69 84.53 23.31 84.53 19.96 84.23 C 16.94 83.53 17.10 78.69 20.16 78.25 Z" />
</g>
</svg>
