<?xml version="1.0" encoding="UTF-8" ?>
<!DOCTYPE svg PUBLIC "-//W3C//DTD SVG 1.1//EN" "http://www.w3.org/Graphics/SVG/1.1/DTD/svg11.dtd">
<svg width="100pt" height="100pt" viewBox="0 0 100 100" version="1.1" xmlns="http://www.w3.org/2000/svg">
<g id="#000000ff">
<path fill="#000000" opacity="1.00" d=" M 16.72 0.00 L 61.07 0.00 C 65.69 1.08 69.77 4.96 69.89 9.90 C 70.19 23.24 69.87 36.60 70.03 49.95 C 73.92 51.28 77.84 53.60 79.20 57.74 C 81.21 63.63 78.65 70.20 81.01 75.98 C 83.93 81.81 93.77 81.03 95.53 74.68 C 96.56 68.81 95.77 62.80 96.00 56.88 C 92.24 52.59 87.13 49.29 84.53 44.11 C 83.35 37.80 84.29 31.28 84.00 24.88 C 80.20 21.05 76.34 17.27 72.58 13.39 C 73.52 12.45 74.46 11.52 75.41 10.59 C 82.33 17.33 89.07 24.24 95.96 31.01 C 97.79 32.77 99.25 34.92 100.00 37.37 L 100.00 73.88 C 98.96 77.67 96.69 81.38 92.92 82.93 C 87.14 85.67 79.51 82.81 77.07 76.88 C 74.83 71.29 76.90 65.08 75.54 59.33 C 74.85 56.66 72.23 55.37 70.10 54.00 C 69.88 65.20 70.05 76.40 70.00 87.60 C 71.18 88.17 72.96 87.97 73.74 89.14 C 74.45 92.73 74.01 96.42 73.44 100.00 L 4.70 100.00 C 3.74 96.47 3.66 92.71 4.25 89.12 C 5.04 87.94 6.82 88.17 8.00 87.60 C 7.99 62.74 8.03 37.88 7.97 13.02 C 8.01 10.19 8.08 7.16 9.79 4.77 C 11.34 2.28 14.06 0.95 16.72 0.00 M 12.22 9.04 C 11.81 12.02 12.03 15.03 12.00 18.02 C 12.01 41.35 12.00 64.67 12.00 88.00 C 30.00 88.00 48.00 88.00 66.00 88.00 C 65.98 62.32 66.04 36.64 65.97 10.96 C 66.29 7.14 62.89 3.72 59.07 4.03 C 45.71 3.98 32.34 3.98 18.97 4.03 C 15.89 3.83 12.79 5.95 12.22 9.04 M 88.01 28.90 C 88.18 33.52 87.58 38.21 88.33 42.79 C 90.25 46.07 93.47 48.32 96.00 51.10 C 95.83 46.47 96.41 41.78 95.67 37.19 C 93.74 33.92 90.54 31.67 88.01 28.90 M 8.00 92.00 C 8.00 93.33 8.00 94.67 8.00 96.00 C 28.67 96.00 49.33 96.00 70.00 96.00 C 70.00 94.66 70.00 93.33 70.00 92.00 C 49.33 92.00 28.67 92.00 8.00 92.00 Z" />
<path fill="#000000" opacity="1.00" d=" M 20.15 8.27 C 31.75 7.64 43.42 8.17 55.05 8.00 C 58.55 7.50 62.18 10.26 61.95 13.94 C 62.05 20.65 62.05 27.37 61.95 34.08 C 62.12 37.24 59.31 40.09 56.15 39.95 C 44.75 40.04 33.34 40.03 21.94 39.95 C 18.77 40.13 15.88 37.30 16.05 34.12 C 15.95 27.39 15.96 20.66 16.05 13.93 C 15.92 11.39 17.69 8.92 20.15 8.27 M 21.17 12.18 C 20.93 12.41 20.44 12.86 20.19 13.09 C 19.80 20.07 19.99 27.09 20.09 34.07 C 19.93 35.63 21.72 36.14 22.94 35.98 C 33.30 36.05 43.67 35.97 54.03 36.02 C 55.46 36.00 57.95 36.18 57.91 34.12 C 58.08 27.38 58.08 20.62 57.91 13.89 C 57.94 11.79 55.43 12.00 53.98 11.98 C 43.05 12.14 32.09 11.74 21.17 12.18 Z" />
</g>
</svg>
