<?xml version="1.0" encoding="UTF-8" ?>
<!DOCTYPE svg PUBLIC "-//W3C//DTD SVG 1.1//EN" "http://www.w3.org/Graphics/SVG/1.1/DTD/svg11.dtd">
<svg width="816pt" height="726pt" viewBox="0 0 816 726" version="1.1" xmlns="http://www.w3.org/2000/svg">
<path fill="#ffffff" stroke="#ffffff" stroke-width="0.09375" opacity="1.00" d=" M 0.00 0.00 L 816.00 0.00 L 816.00 726.00 L 0.00 726.00 L 0.00 0.00 M 277.09 104.46 C 258.00 110.59 239.86 119.26 221.79 127.85 C 214.90 131.68 208.09 135.64 201.16 139.39 C 187.20 147.32 173.95 156.46 161.24 166.27 C 150.60 173.78 140.89 182.50 131.34 191.33 C 126.52 195.19 122.81 200.16 118.28 204.32 C 111.78 210.43 105.93 217.18 100.00 223.84 C 90.64 235.51 80.78 246.87 72.83 259.58 C 67.70 266.89 62.31 274.09 58.37 282.14 C 47.97 299.19 39.37 317.27 31.99 335.80 C 28.28 343.52 26.38 351.92 23.40 359.91 C 20.05 369.40 17.34 379.09 14.85 388.83 C 6.70 423.97 1.22 460.02 2.49 496.18 C 2.40 502.66 2.38 509.16 2.99 515.62 C 3.06 530.56 5.16 545.53 7.20 560.36 C 16.73 560.42 26.24 560.24 35.76 560.50 C 35.72 551.64 33.76 542.94 33.22 534.10 C 30.30 507.15 30.18 479.91 33.05 452.94 C 34.00 438.42 37.17 424.21 39.86 409.95 C 43.72 393.44 47.33 376.81 53.57 360.99 C 59.11 347.57 63.44 333.55 70.71 320.91 C 73.57 314.84 76.62 308.88 79.70 302.92 C 82.86 297.12 86.90 291.85 89.99 286.01 C 96.42 274.81 104.83 264.97 112.28 254.47 C 136.96 223.47 166.70 196.58 199.66 174.64 C 209.58 168.41 219.33 161.85 229.95 156.86 C 237.03 152.84 244.35 149.27 251.69 145.77 C 257.83 143.18 264.04 140.76 270.11 138.01 C 300.85 125.91 333.14 117.69 366.00 114.20 C 448.83 105.36 534.17 126.02 604.41 170.61 C 640.26 194.06 673.34 222.35 699.34 256.55 C 704.07 263.19 709.43 269.37 713.82 276.26 C 719.18 284.60 724.80 292.79 729.77 301.38 C 735.00 312.96 742.33 323.53 746.74 335.50 C 749.15 341.68 751.86 347.73 754.34 353.87 C 758.32 365.84 762.93 377.62 765.72 389.96 C 770.40 405.67 773.11 421.90 775.96 438.03 C 781.34 478.39 780.09 519.54 773.38 559.66 C 775.63 560.77 778.52 559.94 781.02 560.20 C 788.04 559.74 795.11 560.59 802.09 560.06 C 806.06 540.96 807.09 521.38 808.31 501.95 C 809.08 471.44 806.53 440.82 800.39 410.91 C 796.71 390.87 791.54 371.09 784.44 351.98 C 780.52 341.08 776.69 330.09 771.32 319.80 C 766.42 307.83 760.24 296.43 753.77 285.25 C 749.74 277.74 745.28 270.46 740.30 263.53 C 731.29 249.76 721.15 236.76 710.76 224.01 C 704.18 217.66 698.97 210.02 692.04 204.03 C 686.61 199.07 682.17 193.10 676.12 188.84 C 663.33 176.08 648.48 165.69 633.91 155.10 C 626.94 150.91 620.73 145.55 613.48 141.84 C 604.69 136.89 596.03 131.73 587.18 126.89 C 580.68 123.73 574.07 120.79 567.52 117.75 C 560.98 115.27 554.86 111.77 548.15 109.74 C 516.37 97.41 482.99 89.04 449.04 85.75 C 426.83 82.70 404.31 82.76 381.95 83.67 C 346.33 86.22 310.87 92.73 277.09 104.46 M 356.07 298.15 C 349.37 298.35 342.65 298.04 335.96 298.58 C 333.45 298.64 331.49 300.37 329.51 301.70 C 321.05 307.79 312.94 314.36 304.49 320.46 C 293.80 329.23 282.63 337.36 271.76 345.90 C 254.41 358.83 237.86 372.78 220.60 385.82 C 218.48 387.85 215.44 389.51 214.89 392.63 C 239.76 392.73 264.64 393.37 289.52 393.06 C 321.91 393.57 354.33 393.95 386.73 393.42 C 387.13 391.84 387.52 390.25 387.86 388.66 C 389.35 388.07 390.90 387.67 392.48 387.36 C 392.38 386.99 392.18 386.25 392.08 385.88 C 384.48 381.39 375.37 383.04 367.00 381.91 C 348.34 381.38 329.69 380.81 311.05 379.83 C 297.76 379.83 284.51 378.68 271.24 378.22 C 268.67 377.35 265.75 377.80 263.06 377.49 C 264.53 375.42 267.17 374.80 269.09 373.25 C 285.42 360.66 303.32 350.28 319.65 337.69 C 326.48 333.25 333.18 328.56 339.40 323.28 C 341.14 321.91 342.25 319.11 344.83 319.31 C 376.88 319.10 408.94 319.01 441.00 319.26 C 448.06 319.50 455.20 319.27 462.15 320.74 C 466.08 321.51 469.13 324.28 472.38 326.41 C 487.73 337.74 502.43 349.90 517.44 361.66 C 519.90 363.50 522.28 365.49 524.12 367.98 C 523.47 368.12 522.17 368.42 521.53 368.57 C 518.25 374.49 517.23 381.34 516.90 388.01 C 517.02 389.60 515.68 390.94 514.10 390.84 C 510.66 390.93 507.22 390.73 503.79 391.09 C 489.87 391.61 475.89 391.06 462.05 392.85 C 457.71 393.58 452.85 393.08 449.05 395.64 C 462.74 395.64 476.35 397.49 490.01 398.36 C 499.02 398.66 507.95 400.16 516.96 400.50 C 526.98 400.86 537.00 402.55 546.99 402.52 L 546.70 402.98 C 552.45 403.25 558.23 403.93 564.00 403.45 C 565.14 403.40 566.11 402.98 566.93 402.18 C 570.07 403.79 572.37 406.59 575.45 408.29 C 579.09 409.84 583.15 409.33 586.99 409.93 C 610.20 412.74 633.45 415.42 656.52 419.23 C 674.78 421.97 692.83 425.83 711.04 428.84 C 712.96 429.15 714.80 429.84 716.64 430.48 C 712.06 424.67 705.81 420.59 700.28 415.79 C 691.97 409.89 683.22 403.82 672.98 402.04 C 662.16 399.65 651.24 397.77 640.31 395.93 C 624.83 393.86 609.42 391.20 593.85 389.75 C 590.38 389.32 586.61 389.26 583.58 387.30 C 572.07 378.59 561.23 369.03 549.65 360.40 C 543.13 354.89 536.46 349.57 529.57 344.53 C 522.93 338.43 515.25 333.64 508.45 327.73 C 499.47 320.65 490.35 313.78 481.31 306.79 C 478.02 304.24 474.51 301.74 470.41 300.73 C 456.44 298.00 442.14 298.76 428.01 297.89 C 418.67 298.09 409.33 297.54 399.99 297.67 C 385.35 297.94 370.69 297.26 356.07 298.15 M 153.04 419.78 C 141.15 424.81 129.35 430.09 117.86 435.99 C 110.24 440.52 101.19 443.01 94.87 449.47 C 88.66 458.28 79.70 464.62 72.92 472.92 C 71.43 477.10 71.24 481.61 70.31 485.94 C 68.29 495.89 66.23 505.84 64.61 515.86 C 64.19 520.74 63.58 525.97 65.68 530.56 C 77.94 530.17 90.34 530.82 102.43 528.41 C 103.13 521.85 105.12 515.41 104.44 508.75 C 99.51 506.98 94.21 507.37 89.07 507.19 C 86.89 506.99 84.43 507.69 82.65 505.95 C 83.42 505.84 84.96 505.63 85.73 505.52 C 85.36 505.41 84.62 505.17 84.24 505.06 C 88.45 488.82 90.09 471.36 98.91 456.75 C 110.21 455.17 121.64 455.69 132.99 455.02 C 139.45 454.73 145.19 451.16 150.04 447.16 C 159.41 438.98 167.46 428.65 170.73 416.48 C 164.67 416.36 158.79 418.06 153.04 419.78 M 393.30 424.43 C 391.23 425.74 390.84 428.83 392.46 430.65 C 394.34 433.95 398.64 434.06 401.98 434.43 C 406.72 434.45 411.87 435.34 416.25 433.06 C 417.91 431.64 419.38 429.63 419.59 427.40 C 418.32 424.51 414.64 424.55 411.97 424.38 C 405.75 424.34 399.50 424.01 393.30 424.43 M 679.10 441.06 C 670.47 442.11 661.75 442.80 653.06 442.18 C 636.17 440.69 618.63 442.48 603.07 449.56 C 601.26 450.33 599.14 450.72 597.99 452.50 C 597.62 452.48 596.90 452.43 596.54 452.41 C 596.52 453.05 596.50 454.35 596.48 454.99 C 593.53 455.80 589.95 456.22 587.83 458.59 C 588.31 458.31 589.28 457.73 589.76 457.44 C 592.90 459.56 596.69 456.71 597.65 453.57 C 601.95 452.99 605.78 450.62 610.08 449.91 C 624.06 446.02 638.87 445.86 653.11 448.45 C 658.54 449.15 664.05 450.22 668.85 453.00 C 681.80 459.50 691.13 470.88 701.81 480.30 C 707.67 482.44 713.95 482.58 720.08 483.29 C 724.85 483.78 729.60 484.48 734.42 484.41 C 736.91 492.12 739.83 499.82 740.55 507.96 C 739.90 507.64 738.60 507.01 737.94 506.69 C 727.80 506.92 717.63 506.78 707.51 507.65 C 705.93 513.50 707.87 519.42 709.20 525.11 C 709.60 526.86 710.54 528.84 712.48 529.24 C 718.19 530.74 724.14 530.07 729.98 530.36 C 737.78 530.78 745.66 530.18 753.38 531.62 C 752.59 533.34 751.96 535.14 751.47 536.97 L 751.00 537.07 C 746.64 541.08 740.92 543.61 735.00 544.03 C 726.81 544.32 718.58 544.35 710.42 545.20 C 708.60 545.70 706.28 545.31 704.89 546.74 C 704.54 550.62 704.89 554.52 704.93 558.41 C 716.83 555.93 729.17 556.87 741.04 554.16 C 748.05 552.52 751.96 545.35 753.95 538.99 C 753.90 537.93 755.99 535.01 753.87 535.55 C 753.35 534.56 753.49 533.48 753.59 532.43 C 755.76 532.35 756.36 529.83 756.72 528.12 C 757.43 522.74 759.00 517.47 758.92 512.01 C 759.24 504.40 755.63 497.49 753.43 490.42 C 751.43 485.29 749.75 480.04 747.77 474.90 C 744.13 463.61 740.79 451.89 733.87 442.08 C 732.06 439.15 728.84 437.69 726.14 435.77 C 724.36 434.50 722.03 434.84 720.00 434.98 C 706.41 437.33 692.69 438.80 679.10 441.06 M 600.53 461.81 C 596.85 463.20 593.09 464.51 589.10 464.39 C 573.87 467.74 560.45 477.44 551.41 490.01 C 542.59 501.08 537.78 514.79 535.06 528.52 C 533.81 532.74 533.66 537.16 532.47 541.39 C 508.66 540.82 484.82 541.03 461.00 541.05 C 399.56 540.87 338.09 540.83 276.66 541.18 C 276.08 548.42 276.24 555.68 276.23 562.94 C 280.44 563.75 284.72 563.42 288.98 563.46 C 373.50 563.52 458.02 563.53 542.54 563.44 C 543.32 549.38 543.22 535.00 547.73 521.49 C 550.26 513.73 554.04 506.43 558.13 499.39 C 562.46 491.91 568.90 486.03 574.99 480.02 C 580.42 473.63 588.37 470.32 595.56 466.35 C 600.57 463.37 606.39 462.15 612.11 461.39 C 608.26 461.84 604.35 461.25 600.53 461.81 M 182.58 476.78 C 160.03 479.32 139.77 495.56 132.14 516.91 C 127.19 529.18 127.42 542.93 130.59 555.61 C 135.52 571.02 145.83 585.06 160.21 592.82 C 172.96 600.27 188.54 602.00 202.90 599.23 C 218.18 595.51 232.67 586.73 241.31 573.36 C 243.52 569.53 245.69 565.68 247.83 561.81 C 253.69 546.76 254.10 529.26 247.36 514.41 C 241.47 500.32 230.07 488.84 216.38 482.22 C 205.80 477.63 194.10 475.24 182.58 476.78 M 614.47 476.86 C 597.90 478.83 582.66 488.09 572.28 500.99 C 563.84 513.18 558.95 528.20 560.45 543.10 C 560.88 555.15 565.92 566.51 572.72 576.28 C 578.18 583.19 585.08 589.00 592.83 593.20 C 606.50 601.08 623.39 602.53 638.48 598.28 C 651.88 594.17 664.30 585.91 672.16 574.16 C 686.46 555.29 687.46 527.68 675.22 507.54 C 663.42 486.48 638.42 473.81 614.47 476.86 M 252.42 496.08 C 257.30 504.28 261.67 513.24 262.10 522.94 C 264.53 536.25 262.68 549.91 259.07 562.83 C 260.92 561.50 263.12 560.28 263.81 557.94 C 269.81 544.96 267.21 530.17 264.07 516.81 C 262.14 511.90 260.30 506.93 257.46 502.45 C 255.92 500.23 254.94 497.38 252.42 496.08 M 82.96 544.87 C 77.06 545.12 71.27 543.80 65.41 543.34 C 64.97 546.25 64.12 549.56 65.81 552.25 C 68.71 555.81 73.42 557.77 77.97 557.78 C 89.87 557.72 101.77 557.57 113.66 557.33 C 113.85 553.49 113.86 549.65 113.81 545.81 C 114.37 544.40 114.71 542.90 114.62 541.38 C 104.62 545.52 93.54 544.65 82.96 544.87 M 272.12 560.22 C 270.85 561.76 273.67 563.13 274.59 561.68 C 275.76 560.14 273.05 558.81 272.12 560.22 Z" />
<path fill="#01250b" stroke="#01250b" stroke-width="0.09375" opacity="1.00" d=" M 277.09 104.46 C 310.87 92.73 346.33 86.22 381.95 83.67 C 404.31 82.76 426.83 82.70 449.04 85.75 C 482.99 89.04 516.37 97.41 548.15 109.74 C 554.86 111.77 560.98 115.27 567.52 117.75 C 574.07 120.79 580.68 123.73 587.18 126.89 C 596.03 131.73 604.69 136.89 613.48 141.84 C 620.73 145.55 626.94 150.91 633.91 155.10 C 648.48 165.69 663.33 176.08 676.12 188.84 C 682.17 193.10 686.61 199.07 692.04 204.03 C 698.97 210.02 704.18 217.66 710.76 224.01 C 721.15 236.76 731.29 249.76 740.30 263.53 C 745.28 270.46 749.74 277.74 753.77 285.25 C 760.24 296.43 766.42 307.83 771.32 319.80 C 776.69 330.09 780.52 341.08 784.44 351.98 C 791.54 371.09 796.71 390.87 800.39 410.91 C 806.53 440.82 809.08 471.44 808.31 501.95 C 807.09 521.38 806.06 540.96 802.09 560.06 C 795.11 560.59 788.04 559.74 781.02 560.20 C 778.52 559.94 775.63 560.77 773.38 559.66 C 780.09 519.54 781.34 478.39 775.96 438.03 C 773.11 421.90 770.40 405.67 765.72 389.96 C 762.93 377.62 758.32 365.84 754.34 353.87 C 751.86 347.73 749.15 341.68 746.74 335.50 C 742.33 323.53 735.00 312.96 729.77 301.38 C 724.80 292.79 719.18 284.60 713.82 276.26 C 709.43 269.37 704.07 263.19 699.34 256.55 C 673.34 222.35 640.26 194.06 604.41 170.61 C 534.17 126.02 448.83 105.36 366.00 114.20 C 333.14 117.69 300.85 125.91 270.11 138.01 C 264.04 140.76 257.83 143.18 251.69 145.77 C 244.35 149.27 237.03 152.84 229.95 156.86 C 219.33 161.85 209.58 168.41 199.66 174.64 C 166.70 196.58 136.96 223.47 112.28 254.47 C 104.83 264.97 96.42 274.81 89.99 286.01 C 86.90 291.85 82.86 297.12 79.70 302.92 C 76.62 308.88 73.57 314.84 70.71 320.91 C 63.44 333.55 59.11 347.57 53.57 360.99 C 47.33 376.81 43.72 393.44 39.86 409.95 C 37.17 424.21 34.00 438.42 33.05 452.94 C 30.18 479.91 30.30 507.15 33.22 534.10 C 33.76 542.94 35.72 551.64 35.76 560.50 C 26.24 560.24 16.73 560.42 7.20 560.36 C 5.16 545.53 3.06 530.56 2.99 515.62 C 3.77 513.84 4.39 511.96 4.27 510.00 C 4.23 500.99 4.39 491.98 4.15 482.97 C 3.98 478.23 4.69 473.44 3.63 468.76 C 2.61 477.87 3.28 487.06 2.49 496.18 C 1.22 460.02 6.70 423.97 14.85 388.83 C 17.34 379.09 20.05 369.40 23.40 359.91 C 26.38 351.92 28.28 343.52 31.99 335.80 C 39.37 317.27 47.97 299.19 58.37 282.14 C 62.31 274.09 67.70 266.89 72.83 259.58 C 80.78 246.87 90.64 235.51 100.00 223.84 C 105.93 217.18 111.78 210.43 118.28 204.32 C 122.81 200.16 126.52 195.19 131.34 191.33 C 140.89 182.50 150.60 173.78 161.24 166.27 C 173.95 156.46 187.20 147.32 201.16 139.39 C 208.09 135.64 214.90 131.68 221.79 127.85 C 239.86 119.26 258.00 110.59 277.09 104.46 Z" />
<path fill="#011806" stroke="#011806" stroke-width="0.09375" opacity="1.00" d=" M 356.07 298.15 C 370.69 297.26 385.35 297.94 399.99 297.67 C 409.33 297.54 418.67 298.09 428.01 297.89 C 442.14 298.76 456.44 298.00 470.41 300.73 C 474.51 301.74 478.02 304.24 481.31 306.79 C 490.35 313.78 499.47 320.65 508.45 327.73 C 515.25 333.64 522.93 338.43 529.57 344.53 C 536.46 349.57 543.13 354.89 549.65 360.40 C 561.23 369.03 572.07 378.59 583.58 387.30 C 586.61 389.26 590.38 389.32 593.85 389.75 C 609.42 391.20 624.83 393.86 640.31 395.93 C 651.24 397.77 662.16 399.65 672.98 402.04 C 683.22 403.82 691.97 409.89 700.28 415.79 C 705.81 420.59 712.06 424.67 716.64 430.48 C 714.80 429.84 712.96 429.15 711.04 428.84 C 692.83 425.83 674.78 421.97 656.52 419.23 C 633.45 415.42 610.20 412.74 586.99 409.93 C 583.15 409.33 579.09 409.84 575.45 408.29 C 572.37 406.59 570.07 403.79 566.93 402.18 C 567.41 401.75 568.36 400.89 568.84 400.45 C 566.31 398.37 563.12 397.39 560.44 395.55 C 554.59 391.01 548.82 386.27 542.27 382.75 C 538.96 380.82 536.84 377.49 533.92 375.09 C 530.92 372.34 527.14 370.67 524.12 367.98 C 522.28 365.49 519.90 363.50 517.44 361.66 C 502.43 349.90 487.73 337.74 472.38 326.41 C 469.13 324.28 466.08 321.51 462.15 320.74 C 455.20 319.27 448.06 319.50 441.00 319.26 C 408.94 319.01 376.88 319.10 344.83 319.31 C 342.25 319.11 341.14 321.91 339.40 323.28 C 333.18 328.56 326.48 333.25 319.65 337.69 C 303.32 350.28 285.42 360.66 269.09 373.25 C 267.17 374.80 264.53 375.42 263.06 377.49 C 265.75 377.80 268.67 377.35 271.24 378.22 C 275.26 382.28 281.86 377.97 286.26 381.62 C 293.21 381.32 300.20 380.86 307.15 381.33 C 303.87 382.69 300.43 383.62 297.00 384.51 C 298.99 386.31 301.69 387.30 303.30 389.54 C 298.59 390.12 293.85 391.09 289.52 393.06 C 264.64 393.37 239.76 392.73 214.89 392.63 C 215.44 389.51 218.48 387.85 220.60 385.82 C 237.86 372.78 254.41 358.83 271.76 345.90 C 282.63 337.36 293.80 329.23 304.49 320.46 C 312.94 314.36 321.05 307.79 329.51 301.70 C 331.49 300.37 333.45 298.64 335.96 298.58 C 342.65 298.04 349.37 298.35 356.07 298.15 Z" />
<path fill="#011d0d" stroke="#011d0d" stroke-width="0.09375" opacity="1.00" d=" M 521.53 368.57 C 522.17 368.42 523.47 368.12 524.12 367.98 C 527.14 370.67 530.92 372.34 533.92 375.09 C 536.84 377.49 538.96 380.82 542.27 382.75 C 548.82 386.27 554.59 391.01 560.44 395.55 C 563.12 397.39 566.31 398.37 568.84 400.45 C 568.36 400.89 567.41 401.75 566.93 402.18 C 566.11 402.98 565.14 403.40 564.00 403.45 C 558.23 403.93 552.45 403.25 546.70 402.98 L 546.99 402.52 C 547.21 402.18 547.65 401.50 547.87 401.17 C 541.14 401.10 534.51 399.68 527.77 399.62 C 527.61 398.84 527.45 398.07 527.30 397.31 C 524.75 396.66 522.23 395.81 519.61 395.54 C 516.77 396.00 514.06 397.94 511.10 396.89 C 507.79 396.35 505.59 393.67 503.79 391.09 C 507.22 390.73 510.66 390.93 514.10 390.84 C 515.68 390.94 517.02 389.60 516.90 388.01 C 517.23 381.34 518.25 374.49 521.53 368.57 Z" />
<path fill="#020e05" stroke="#020e05" stroke-width="0.09375" opacity="1.00" d=" M 271.24 378.22 C 284.51 378.68 297.76 379.83 311.05 379.83 C 329.69 380.81 348.34 381.38 367.00 381.91 C 375.37 383.04 384.48 381.39 392.08 385.88 C 392.18 386.25 392.38 386.99 392.48 387.36 C 390.90 387.67 389.35 388.07 387.86 388.66 C 387.52 390.25 387.13 391.84 386.73 393.42 C 354.33 393.95 321.91 393.57 289.52 393.06 C 293.85 391.09 298.59 390.12 303.30 389.54 C 301.69 387.30 298.99 386.31 297.00 384.51 C 300.43 383.62 303.87 382.69 307.15 381.33 C 300.20 380.86 293.21 381.32 286.26 381.62 C 281.86 377.97 275.26 382.28 271.24 378.22 Z" />
<path fill="#041007" stroke="#041007" stroke-width="0.09375" opacity="1.00" d=" M 462.05 392.85 C 475.89 391.06 489.87 391.61 503.79 391.09 C 505.59 393.67 507.79 396.35 511.10 396.89 C 514.06 397.94 516.77 396.00 519.61 395.54 C 522.23 395.81 524.75 396.66 527.30 397.31 C 527.45 398.07 527.61 398.84 527.77 399.62 C 534.51 399.68 541.14 401.10 547.87 401.17 C 547.65 401.50 547.21 402.18 546.99 402.52 C 537.00 402.55 526.98 400.86 516.96 400.50 C 507.95 400.16 499.02 398.66 490.01 398.36 C 476.35 397.49 462.74 395.64 449.05 395.64 C 452.85 393.08 457.71 393.58 462.05 392.85 Z" />
<path fill="#000000" stroke="#000000" stroke-width="0.09375" opacity="1.00" d=" M 153.04 419.78 C 158.79 418.06 164.67 416.36 170.73 416.48 C 167.46 428.65 159.41 438.98 150.04 447.16 C 145.19 451.16 139.45 454.73 132.99 455.02 C 121.64 455.69 110.21 455.17 98.91 456.75 C 94.79 457.02 95.56 452.16 94.87 449.47 C 101.19 443.01 110.24 440.52 117.86 435.99 C 129.35 430.09 141.15 424.81 153.04 419.78 Z" />
<path fill="#040e07" stroke="#040e07" stroke-width="0.09375" opacity="1.00" d=" M 393.30 424.43 C 399.50 424.01 405.75 424.34 411.97 424.38 C 414.64 424.55 418.32 424.51 419.59 427.40 C 419.38 429.63 417.91 431.64 416.25 433.06 C 411.87 435.34 406.72 434.45 401.98 434.43 C 398.64 434.06 394.34 433.95 392.46 430.65 C 390.84 428.83 391.23 425.74 393.30 424.43 Z" />
<path fill="#011b07" stroke="#011b07" stroke-width="0.09375" opacity="1.00" d=" M 679.10 441.06 C 692.69 438.80 706.41 437.33 720.00 434.98 C 722.03 434.84 724.36 434.50 726.14 435.77 C 728.84 437.69 732.06 439.15 733.87 442.08 C 740.79 451.89 744.13 463.61 747.77 474.90 C 749.75 480.04 751.43 485.29 753.43 490.42 C 755.63 497.49 759.24 504.40 758.92 512.01 C 759.00 517.47 757.43 522.74 756.72 528.12 C 756.36 529.83 755.76 532.35 753.59 532.43 C 753.49 533.48 753.35 534.56 753.87 535.55 C 753.64 536.74 752.43 536.78 751.47 536.97 C 751.96 535.14 752.59 533.34 753.38 531.62 C 745.66 530.18 737.78 530.78 729.98 530.36 C 724.14 530.07 718.19 530.74 712.48 529.24 C 710.54 528.84 709.60 526.86 709.20 525.11 C 707.87 519.42 705.93 513.50 707.51 507.65 C 717.63 506.78 727.80 506.92 737.94 506.69 C 738.60 507.01 739.90 507.64 740.55 507.96 C 739.83 499.82 736.91 492.12 734.42 484.41 C 729.60 484.48 724.85 483.78 720.08 483.29 C 713.95 482.58 707.67 482.44 701.81 480.30 C 701.76 478.81 701.73 477.34 701.68 475.86 C 697.28 475.12 695.39 470.52 692.46 467.69 C 692.77 467.18 693.39 466.15 693.70 465.63 C 690.37 461.21 686.04 457.70 682.47 453.49 C 680.51 451.16 677.74 449.78 675.15 448.30 C 676.24 446.95 677.37 445.64 678.56 444.37 C 677.37 444.03 676.21 443.71 675.05 443.38 C 676.61 443.19 678.19 443.02 679.77 442.85 C 679.60 442.40 679.26 441.51 679.10 441.06 M 702.37 454.79 C 702.32 455.00 702.22 455.43 702.17 455.64 C 707.09 453.92 708.67 460.35 712.99 461.05 C 718.01 461.75 722.12 464.83 726.79 466.54 C 725.44 461.79 723.42 457.28 720.09 453.59 C 716.37 454.05 712.64 453.46 708.92 453.64 C 706.71 453.91 704.62 454.83 702.37 454.79 Z" />
<path fill="#080f07" stroke="#080f07" stroke-width="0.09375" opacity="1.00" d=" M 653.06 442.18 C 661.75 442.80 670.47 442.11 679.10 441.06 C 679.26 441.51 679.60 442.40 679.77 442.85 C 678.19 443.02 676.61 443.19 675.05 443.38 C 676.21 443.71 677.37 444.03 678.56 444.37 C 677.37 445.64 676.24 446.95 675.15 448.30 C 673.21 447.25 671.08 446.68 668.96 446.19 C 672.81 449.17 677.38 450.95 681.44 453.56 C 685.69 457.40 689.73 461.49 693.70 465.63 C 693.39 466.15 692.77 467.18 692.46 467.69 C 695.39 470.52 697.28 475.12 701.68 475.86 C 701.73 477.34 701.76 478.81 701.81 480.30 C 691.13 470.88 681.80 459.50 668.85 453.00 C 664.05 450.22 658.54 449.15 653.11 448.45 C 638.87 445.86 624.06 446.02 610.08 449.91 C 605.78 450.62 601.95 452.99 597.65 453.57 C 596.69 456.71 592.90 459.56 589.76 457.44 C 589.28 457.73 588.31 458.31 587.83 458.59 C 589.95 456.22 593.53 455.80 596.48 454.99 C 596.50 454.35 596.52 453.05 596.54 452.41 C 596.90 452.43 597.62 452.48 597.99 452.50 C 599.14 450.72 601.26 450.33 603.07 449.56 C 618.63 442.48 636.17 440.69 653.06 442.18 Z" />
<path fill="#f5f8f4" stroke="#f5f8f4" stroke-width="0.09375" opacity="1.00" d=" M 668.96 446.19 C 671.08 446.68 673.21 447.25 675.15 448.30 C 677.74 449.78 680.51 451.16 682.47 453.49 C 686.04 457.70 690.37 461.21 693.70 465.63 C 689.73 461.49 685.69 457.40 681.44 453.56 C 677.38 450.95 672.81 449.17 668.96 446.19 Z" />
<path fill="#011002" stroke="#011002" stroke-width="0.09375" opacity="1.00" d=" M 72.92 472.92 C 79.70 464.62 88.66 458.28 94.87 449.47 C 95.56 452.16 94.79 457.02 98.91 456.75 C 90.09 471.36 88.45 488.82 84.24 505.06 C 84.62 505.17 85.36 505.41 85.73 505.52 C 84.96 505.63 83.42 505.84 82.65 505.95 C 84.43 507.69 86.89 506.99 89.07 507.19 C 94.21 507.37 99.51 506.98 104.44 508.75 C 105.12 515.41 103.13 521.85 102.43 528.41 C 90.34 530.82 77.94 530.17 65.68 530.56 C 63.58 525.97 64.19 520.74 64.61 515.86 C 66.23 505.84 68.29 495.89 70.31 485.94 C 71.24 481.61 71.43 477.10 72.92 472.92 Z" />
<path fill="#f5f8f4" stroke="#f5f8f4" stroke-width="0.09375" opacity="1.00" d=" M 702.37 454.79 C 704.62 454.83 706.71 453.91 708.92 453.64 C 712.64 453.46 716.37 454.05 720.09 453.59 C 723.42 457.28 725.44 461.79 726.79 466.54 C 722.12 464.83 718.01 461.75 712.99 461.05 C 708.67 460.35 707.09 453.92 702.17 455.64 C 702.22 455.43 702.32 455.00 702.37 454.79 Z" />
<path fill="#040e05" stroke="#040e05" stroke-width="0.09375" opacity="1.00" d=" M 600.53 461.81 C 604.35 461.25 608.26 461.84 612.11 461.39 C 606.39 462.15 600.57 463.37 595.56 466.35 C 588.37 470.32 580.42 473.63 574.99 480.02 C 568.90 486.03 562.46 491.91 558.13 499.39 C 554.04 506.43 550.26 513.73 547.73 521.49 C 547.48 520.64 546.98 518.92 546.73 518.07 C 544.82 519.23 542.46 520.09 541.47 522.26 C 539.88 524.80 538.89 529.08 535.06 528.52 C 537.78 514.79 542.59 501.08 551.41 490.01 C 560.45 477.44 573.87 467.74 589.10 464.39 C 593.09 464.51 596.85 463.20 600.53 461.81 Z" />
<path fill="#000e01" stroke="#000e01" stroke-width="0.09375" opacity="1.00" d=" M 3.63 468.76 C 4.69 473.44 3.98 478.23 4.15 482.97 C 4.39 491.98 4.23 500.99 4.27 510.00 C 4.39 511.96 3.77 513.84 2.99 515.62 C 2.38 509.16 2.40 502.66 2.49 496.18 C 3.28 487.06 2.61 477.87 3.63 468.76 Z" />
<path fill="#011606" stroke="#011606" stroke-width="0.09375" opacity="1.00" d=" M 182.58 476.78 C 194.10 475.24 205.80 477.63 216.38 482.22 C 230.07 488.84 241.47 500.32 247.36 514.41 C 254.10 529.26 253.69 546.76 247.83 561.81 C 245.69 565.68 243.52 569.53 241.31 573.36 C 232.67 586.73 218.18 595.51 202.90 599.23 C 188.54 602.00 172.96 600.27 160.21 592.82 C 145.83 585.06 135.52 571.02 130.59 555.61 C 127.42 542.93 127.19 529.18 132.14 516.91 C 139.77 495.56 160.03 479.32 182.58 476.78 M 180.49 501.73 C 172.77 503.37 166.18 508.26 160.96 514.01 C 153.79 523.23 151.08 535.73 153.45 547.14 C 155.81 558.08 163.77 567.10 173.43 572.40 C 181.24 575.83 190.15 577.65 198.57 575.50 C 207.28 573.01 215.38 567.83 220.62 560.35 C 228.16 550.08 229.60 535.82 224.75 524.11 C 221.75 517.89 217.72 511.96 212.06 507.89 C 203.09 501.42 191.25 498.94 180.49 501.73 Z" />
<path fill="#011907" stroke="#011907" stroke-width="0.09375" opacity="1.00" d=" M 614.47 476.86 C 638.42 473.81 663.42 486.48 675.22 507.54 C 687.46 527.68 686.46 555.29 672.16 574.16 C 664.30 585.91 651.88 594.17 638.48 598.28 C 623.39 602.53 606.50 601.08 592.83 593.20 C 585.08 589.00 578.18 583.19 572.72 576.28 C 565.92 566.51 560.88 555.15 560.45 543.10 C 558.95 528.20 563.84 513.18 572.28 500.99 C 582.66 488.09 597.90 478.83 614.47 476.86 M 612.55 501.79 C 599.43 504.85 588.69 515.89 585.74 529.01 C 581.62 543.39 587.49 559.77 599.30 568.78 C 604.77 573.46 611.93 575.58 618.97 576.34 C 632.16 577.60 645.44 570.58 652.73 559.68 C 659.01 550.78 660.64 539.09 658.23 528.59 C 654.99 518.26 647.49 509.39 637.90 504.39 C 630.04 500.78 620.98 499.64 612.55 501.79 Z" />
<path fill="#060503" stroke="#060503" stroke-width="0.09375" opacity="1.00" d=" M 252.42 496.08 C 254.94 497.38 255.92 500.23 257.46 502.45 C 260.30 506.93 262.14 511.90 264.07 516.81 C 267.21 530.17 269.81 544.96 263.81 557.94 C 263.12 560.28 260.92 561.50 259.07 562.83 C 262.68 549.91 264.53 536.25 262.10 522.94 C 261.67 513.24 257.30 504.28 252.42 496.08 Z" />
<path fill="#ffffff" stroke="#ffffff" stroke-width="0.09375" opacity="1.00" d=" M 180.49 501.73 C 191.25 498.94 203.09 501.42 212.06 507.89 C 217.72 511.96 221.75 517.89 224.75 524.11 C 229.60 535.82 228.16 550.08 220.62 560.35 C 215.38 567.83 207.28 573.01 198.57 575.50 C 190.15 577.65 181.24 575.83 173.43 572.40 C 163.77 567.10 155.81 558.08 153.45 547.14 C 151.08 535.73 153.79 523.23 160.96 514.01 C 166.18 508.26 172.77 503.37 180.49 501.73 Z" />
<path fill="#ffffff" stroke="#ffffff" stroke-width="0.09375" opacity="1.00" d=" M 612.55 501.79 C 620.98 499.64 630.04 500.78 637.90 504.39 C 647.49 509.39 654.99 518.26 658.23 528.59 C 660.64 539.09 659.01 550.78 652.73 559.68 C 645.44 570.58 632.16 577.60 618.97 576.34 C 611.93 575.58 604.77 573.46 599.30 568.78 C 587.49 559.77 581.62 543.39 585.74 529.01 C 588.69 515.89 599.43 504.85 612.55 501.79 Z" />
<path fill="#011a06" stroke="#011a06" stroke-width="0.09375" opacity="1.00" d=" M 541.47 522.26 C 542.46 520.09 544.82 519.23 546.73 518.07 C 546.98 518.92 547.48 520.64 547.73 521.49 C 543.22 535.00 543.32 549.38 542.54 563.44 C 458.02 563.53 373.50 563.52 288.98 563.46 C 284.72 563.42 280.44 563.75 276.23 562.94 C 276.24 555.68 276.08 548.42 276.66 541.18 C 338.09 540.83 399.56 540.87 461.00 541.05 C 484.82 541.03 508.66 540.82 532.47 541.39 C 533.66 537.16 533.81 532.74 535.06 528.52 C 538.89 529.08 539.88 524.80 541.47 522.26 Z" />
<path fill="#021106" stroke="#021106" stroke-width="0.09375" opacity="1.00" d=" M 753.87 535.55 C 755.99 535.01 753.90 537.93 753.95 538.99 C 751.96 545.35 748.05 552.52 741.04 554.16 C 729.17 556.87 716.83 555.93 704.93 558.41 C 704.89 554.52 704.54 550.62 704.89 546.74 C 706.28 545.31 708.60 545.70 710.42 545.20 C 718.58 544.35 726.81 544.32 735.00 544.03 C 740.92 543.61 746.64 541.08 751.00 537.07 L 751.47 536.97 C 752.43 536.78 753.64 536.74 753.87 535.55 Z" />
<path fill="#021307" stroke="#021307" stroke-width="0.09375" opacity="1.00" d=" M 82.96 544.87 C 93.54 544.65 104.62 545.52 114.62 541.38 C 114.71 542.90 114.37 544.40 113.81 545.81 C 113.86 549.65 113.85 553.49 113.66 557.33 C 101.77 557.57 89.87 557.72 77.97 557.78 C 73.42 557.77 68.71 555.81 65.81 552.25 C 64.12 549.56 64.97 546.25 65.41 543.34 C 71.27 543.80 77.06 545.12 82.96 544.87 Z" />
<path fill="#d8d5cf" stroke="#d8d5cf" stroke-width="0.09375" opacity="1.00" d=" M 272.12 560.22 C 273.05 558.81 275.76 560.14 274.59 561.68 C 273.67 563.13 270.85 561.76 272.12 560.22 Z" />
</svg>
