<?xml version="1.0" encoding="UTF-8" ?>
<!DOCTYPE svg PUBLIC "-//W3C//DTD SVG 1.1//EN" "http://www.w3.org/Graphics/SVG/1.1/DTD/svg11.dtd">
<svg width="512pt" height="512pt" viewBox="0 0 512 512" version="1.1" xmlns="http://www.w3.org/2000/svg">
<path fill="#000000" stroke="#000000" stroke-width="0.09375" opacity="1.00" d=" M 247.34 0.00 L 266.19 0.00 C 277.36 1.05 288.24 5.84 296.08 13.95 C 304.46 22.39 309.38 34.11 309.52 46.00 C 309.62 58.35 309.53 70.71 309.56 83.07 C 309.66 92.95 306.93 103.00 301.00 110.99 C 299.54 113.11 297.51 115.15 297.56 117.91 C 297.07 125.02 296.79 132.15 296.33 139.27 C 334.24 139.28 372.14 139.25 410.05 139.28 C 426.16 139.33 442.02 146.11 453.39 157.48 C 465.13 169.10 472.04 185.45 471.88 202.00 C 471.85 228.00 471.96 254.01 471.83 280.01 C 472.05 286.87 464.17 292.04 457.97 289.10 C 453.99 287.48 451.65 283.23 451.90 279.01 C 451.82 253.02 451.96 227.02 451.84 201.02 C 451.76 184.19 440.58 168.14 424.84 162.20 C 417.63 159.19 409.69 159.11 402.00 159.26 C 366.39 159.27 330.77 159.27 295.16 159.26 C 292.55 203.95 289.92 248.64 287.32 293.33 C 304.80 293.33 322.27 293.34 339.74 293.33 C 339.80 274.24 339.61 255.15 339.83 236.07 C 340.10 220.13 355.09 206.47 370.98 207.56 C 386.35 207.81 399.81 221.58 399.73 236.95 C 399.84 295.29 399.72 353.63 399.79 411.96 C 399.89 417.77 398.71 423.68 395.69 428.69 C 389.86 438.94 377.70 445.21 365.97 443.55 C 351.84 442.00 340.01 429.19 339.81 414.94 C 339.63 394.41 339.80 373.87 339.74 353.33 C 321.62 353.34 303.51 353.33 285.39 353.33 C 285.40 370.54 285.38 387.75 285.40 404.96 C 285.37 409.90 285.67 414.89 284.74 419.78 C 282.47 431.04 273.24 440.49 262.04 443.03 C 249.00 446.28 234.48 439.36 228.61 427.33 C 225.05 420.83 225.23 413.24 225.35 406.06 C 225.37 388.48 225.34 370.91 225.36 353.34 C 207.24 353.32 189.13 353.35 171.01 353.32 C 170.94 373.92 171.13 394.52 170.93 415.12 C 170.53 429.49 158.40 442.29 144.12 443.62 C 131.63 445.16 118.81 437.73 113.71 426.27 C 110.45 419.66 110.96 412.12 110.97 404.97 C 110.98 352.29 110.97 299.61 110.97 246.93 C 111.03 239.99 110.36 232.72 113.20 226.19 C 117.70 214.84 129.67 206.98 141.90 207.55 C 152.48 207.74 162.60 214.10 167.48 223.46 C 170.08 228.18 171.06 233.61 171.02 238.95 C 171.00 257.08 171.01 275.20 171.01 293.33 C 188.51 293.33 206.00 293.33 223.50 293.33 C 221.00 248.64 218.50 203.95 215.99 159.26 C 179.65 159.26 143.31 159.29 106.97 159.25 C 99.75 159.07 92.34 159.62 85.65 162.57 C 70.07 168.91 59.26 185.15 59.56 201.99 C 59.53 284.33 59.54 366.66 59.55 449.00 C 59.40 460.88 64.46 472.69 73.25 480.69 C 81.23 488.13 92.13 492.20 103.02 492.00 C 203.02 492.01 303.01 491.98 403.01 492.01 C 410.68 492.20 418.59 491.83 425.72 488.71 C 441.06 482.47 451.84 466.63 451.84 450.04 C 451.92 423.38 451.88 396.72 451.86 370.06 C 451.88 367.03 452.12 363.68 454.35 361.38 C 457.89 357.00 465.20 356.80 469.01 360.93 C 471.45 363.25 471.95 366.78 471.91 369.99 C 471.83 396.66 471.93 423.32 471.86 449.99 C 471.92 471.98 459.17 493.32 439.96 503.95 C 431.61 508.74 422.13 511.34 412.55 512.00 L 98.57 512.00 C 87.55 511.17 76.64 507.73 67.48 501.47 C 53.34 492.13 43.25 476.83 40.45 460.10 C 39.22 453.13 39.58 446.02 39.54 438.98 C 39.54 360.00 39.54 281.02 39.54 202.03 C 39.51 190.42 42.68 178.78 48.90 168.96 C 58.24 153.81 74.26 142.86 91.88 140.10 C 98.52 138.96 105.28 139.31 111.99 139.27 C 146.28 139.27 180.57 139.26 214.86 139.27 C 214.37 131.85 214.18 124.41 213.59 117.01 C 213.47 114.80 211.88 113.14 210.72 111.40 C 204.82 103.58 201.87 93.75 201.88 84.00 C 201.82 72.65 201.90 61.30 201.85 49.95 C 201.71 42.68 202.62 35.29 205.56 28.57 C 212.38 11.99 229.41 0.37 247.34 0.00 M 245.18 20.24 C 232.47 21.60 221.93 33.25 221.91 46.04 C 221.83 59.02 221.84 72.00 221.91 84.97 C 221.94 97.59 232.28 109.26 244.84 110.62 C 251.55 111.25 258.31 111.08 265.03 110.80 C 278.22 110.14 289.43 98.14 289.52 85.00 C 289.62 72.65 289.52 60.29 289.56 47.94 C 289.68 42.10 288.14 36.18 284.71 31.41 C 279.87 24.40 271.52 19.99 262.99 20.02 C 257.05 20.03 251.10 19.78 245.18 20.24 M 234.31 128.86 C 237.96 193.92 241.63 258.97 245.25 324.02 C 245.43 327.12 245.82 330.52 248.14 332.83 C 251.68 336.77 258.46 337.03 262.21 333.25 C 264.78 330.93 265.27 327.33 265.49 324.06 C 269.28 259.01 273.08 193.96 276.91 128.91 C 272.37 130.13 267.71 130.95 263.00 130.99 C 253.41 131.11 243.62 131.63 234.31 128.86 M 134.21 230.20 C 131.67 232.37 130.84 235.80 130.96 239.02 C 130.99 297.02 130.95 355.03 130.99 413.03 C 130.53 418.63 135.35 423.97 141.01 423.78 C 146.65 423.90 151.42 418.59 150.99 413.02 C 151.05 390.00 150.96 366.98 151.02 343.96 C 150.61 338.40 155.39 333.25 160.98 333.37 C 182.70 333.27 204.43 333.36 226.15 333.34 C 225.11 326.72 225.08 320.00 224.63 313.33 C 206.09 313.34 187.54 313.32 168.99 313.34 C 165.64 313.31 162.25 313.56 158.92 313.02 C 154.31 312.22 150.86 307.69 151.04 303.06 C 150.95 281.69 151.03 260.32 151.01 238.96 C 151.08 236.01 150.44 232.86 148.28 230.71 C 144.76 226.74 138.01 226.48 134.21 230.20 M 359.76 238.00 C 359.69 259.35 359.76 280.71 359.74 302.07 C 359.93 305.67 358.51 309.46 355.43 311.50 C 352.72 313.51 349.17 313.31 345.98 313.37 C 326.04 313.29 306.09 313.36 286.15 313.33 C 285.67 320.00 285.63 326.72 284.59 333.34 C 305.39 333.31 326.19 333.37 346.99 333.31 C 349.73 333.32 352.68 333.31 355.05 334.90 C 358.15 336.77 359.84 340.41 359.72 343.98 C 359.77 366.97 359.71 389.96 359.74 412.95 C 359.58 416.67 361.32 420.47 364.61 422.35 C 368.82 425.05 374.90 423.78 377.76 419.70 C 379.53 417.52 379.79 414.62 379.79 411.93 C 379.73 353.91 379.82 295.89 379.74 237.87 C 380.00 232.50 375.40 227.53 369.99 227.54 C 364.36 227.24 359.40 232.40 359.76 238.00 M 245.42 414.09 C 245.31 420.71 252.89 425.78 258.97 423.09 C 263.86 421.38 265.92 415.91 265.42 411.07 C 265.37 392.18 265.39 373.29 265.41 354.39 C 258.88 356.39 251.86 356.44 245.34 354.39 C 245.43 374.29 245.26 394.20 245.42 414.09 Z" />
<path fill="#000000" stroke="#000000" stroke-width="0.09375" opacity="1.00" d=" M 138.35 176.46 C 145.38 174.65 152.39 182.06 149.98 188.98 C 148.28 196.26 137.95 198.57 133.14 192.96 C 127.88 187.77 131.03 177.68 138.35 176.46 Z" />
<path fill="#000000" stroke="#000000" stroke-width="0.09375" opacity="1.00" d=" M 369.43 176.53 C 376.40 174.50 383.60 181.64 381.50 188.63 C 380.06 196.00 369.75 198.66 364.77 193.17 C 359.35 188.16 362.20 178.02 369.43 176.53 Z" />
<path fill="#000000" stroke="#000000" stroke-width="0.09375" opacity="1.00" d=" M 459.30 315.47 C 465.81 313.14 473.50 318.94 472.37 325.94 C 471.89 333.43 462.07 337.63 456.35 332.76 C 450.12 328.39 451.89 317.45 459.30 315.47 Z" />
<path fill="#000000" stroke="#000000" stroke-width="0.09375" opacity="1.00" d=" M 137.38 455.55 C 144.65 452.66 152.67 460.73 149.95 468.00 C 148.06 475.07 137.99 477.38 133.20 471.85 C 128.09 466.92 130.77 457.59 137.38 455.55 Z" />
<path fill="#000000" stroke="#000000" stroke-width="0.09375" opacity="1.00" d=" M 252.42 455.71 C 259.33 452.78 267.29 459.71 265.46 466.94 C 264.43 474.19 254.79 477.44 249.42 472.60 C 243.35 468.25 245.26 457.74 252.42 455.71 Z" />
<path fill="#000000" stroke="#000000" stroke-width="0.09375" opacity="1.00" d=" M 368.46 455.67 C 375.42 452.62 383.53 459.85 381.61 467.11 C 380.36 474.52 370.06 477.67 364.92 472.14 C 359.57 467.43 361.89 457.96 368.46 455.67 Z" />
</svg>
